<?xml version="1.0" encoding="UTF-8"?>
<svg version="1.1" xmlns="http://www.w3.org/2000/svg" width="512" height="512">
<path d="M0 0 C4.61605586 3.63453661 7.49987226 7.78045444 8.32022572 13.71749401 C8.42636363 15.95808664 8.44117032 18.18115719 8.42150879 20.42419434 C8.42603892 21.27713782 8.43056905 22.1300813 8.43523645 23.00887156 C8.44682241 25.85437893 8.43722857 28.69941275 8.42773438 31.54492188 C8.43184144 33.5905589 8.43730312 35.63619359 8.4440155 37.68182373 C8.45573147 42.0824909 8.45822786 46.48303268 8.45365906 50.88371277 C8.4468393 57.853082 8.46273686 64.82228695 8.48205566 71.79162598 C8.51990563 86.59805429 8.53269904 101.40446825 8.54296875 116.2109375 C8.55405282 132.16979489 8.56953916 148.12857628 8.61368132 164.08738184 C8.63196037 171.00356239 8.63595713 177.91955459 8.62874603 184.83575344 C8.62721505 189.15656587 8.63806597 193.47728569 8.6521244 197.79807281 C8.65609879 199.78812051 8.65505089 201.77818623 8.64835167 203.76822662 C8.60448006 217.8963157 8.80066372 232.25709509 15.66796875 245.0234375 C16.01351807 245.68657959 16.35906738 246.34972168 16.71508789 247.03295898 C24.50374096 261.37294604 37.63104271 271.40612644 52.9375 276.71484375 C63.46337064 279.76219371 73.86360816 279.85392054 84.74243164 279.82446289 C86.21172076 279.82418037 87.68101003 279.82434003 89.15029907 279.8249054 C93.11452827 279.82519082 97.07872684 279.81933544 101.04294896 279.81233144 C105.19492641 279.80605532 109.34690465 279.80549074 113.49888611 279.80430603 C121.35031306 279.80120523 129.20172599 279.79300878 137.05314678 279.78295654 C145.99635148 279.77175646 154.93955687 279.76627516 163.88276684 279.76126111 C182.26950874 279.75082506 200.65623762 279.73324995 219.04296875 279.7109375 C218.26036179 278.93943359 217.47775482 278.16792969 216.6714325 277.37304688 C209.28643099 270.0895421 201.91477288 262.79276548 194.55586529 255.4828949 C190.77242619 251.72551403 186.98449293 247.97291154 183.18579102 244.23095703 C179.51784107 240.61745893 175.86235356 236.99177123 172.21506691 233.35742188 C170.82362612 231.97519712 169.42780219 230.5973699 168.02750206 229.22412109 C166.06201979 227.2951017 164.11291551 225.35082204 162.16674805 223.40234375 C161.299282 222.56184227 161.299282 222.56184227 160.41429138 221.70436096 C155.60190741 216.83005993 153.07743376 211.67400239 152.66796875 204.7109375 C152.9457066 198.28509355 155.3621319 192.15173143 160.04296875 187.7109375 C166.48404437 183.43264507 172.34820578 181.40893272 180.04296875 182.7109375 C187.77008467 185.52275134 193.14421267 190.13690074 198.73046875 196.0234375 C199.43751953 196.74466797 200.14457031 197.46589844 200.87304688 198.20898438 C204.0888026 201.513655 207.19175033 204.88008904 210.19851685 208.37541199 C213.88096456 212.58737485 217.76716348 216.54312452 221.75073242 220.46875 C222.4866008 221.19833923 223.22246918 221.92792847 223.9806366 222.67962646 C225.56461847 224.24985147 227.14967393 225.81899411 228.73570824 227.387146 C231.24864373 229.87324099 233.75700715 232.36386254 236.26399231 234.85595703 C243.38718894 241.93659358 250.51304961 249.0144753 257.6550293 256.07617188 C262.03542121 260.40797843 266.40593281 264.74954301 270.77019691 269.09759521 C272.42949181 270.74701464 274.09243053 272.39277708 275.75911522 274.034729 C278.08989144 276.33166066 280.40786058 278.64083652 282.72338867 280.953125 C283.40866638 281.62245056 284.09394409 282.29177612 284.79998779 282.98138428 C289.78564474 287.99887407 293.45751121 292.98725537 294.57421875 300.08984375 C294.56390625 301.14042969 294.55359375 302.19101562 294.54296875 303.2734375 C294.5584375 304.85318359 294.5584375 304.85318359 294.57421875 306.46484375 C293.12910769 315.29489737 286.22961994 320.96493589 280.16894531 327.00488281 C279.15611257 328.02506464 278.1439017 329.04586417 277.13226318 330.06723022 C274.39542082 332.82620482 271.64909686 335.57554752 268.90021992 338.32252598 C266.601467 340.62115885 264.30707867 342.92412486 262.01255012 345.2269733 C256.5977543 350.66097202 251.17485839 356.0867937 245.74707031 361.5078125 C240.15674667 367.09149214 234.58135464 372.68977356 229.01292062 378.29527593 C224.22174822 383.11717582 219.42092825 387.92932217 214.6124227 392.73393703 C211.74485861 395.59943741 208.88116376 398.46855007 206.02692413 401.34732819 C203.34247538 404.05409281 200.64615304 406.74844807 197.9404068 409.433918 C196.95251208 410.41841168 195.96882007 411.4071445 194.98982239 412.40048599 C188.5665436 418.91130069 183.47807287 423.46573777 174.04296875 424.0859375 C166.86950998 423.76242858 160.99787818 420.89107008 156.04296875 415.7109375 C152.19063274 409.6692304 150.99271749 403.76845385 152.04296875 396.7109375 C155.14017497 386.52513798 163.51856897 379.59904585 170.875 372.390625 C172.23658282 371.0383829 173.59705461 369.68502127 174.95646667 368.33059692 C178.51452215 364.79151171 182.08733877 361.26771001 185.66357422 357.74700928 C189.31935918 354.14263252 192.9607987 350.52382485 196.60351562 346.90625 C203.73612956 339.82704755 210.88444069 332.76392773 218.04296875 325.7109375 C217.24950326 325.70854915 216.45603777 325.70616079 215.63852787 325.70370007 C196.26326598 325.64436621 176.88812949 325.56869991 157.51300144 325.47522259 C148.14303785 325.43040332 138.7731111 325.39095731 129.40307617 325.36450195 C121.22886259 325.34140887 113.05476695 325.30788644 104.88064712 325.26223594 C100.55912731 325.23845501 96.23772318 325.21962779 91.9161396 325.21332359 C87.83423318 325.20720337 83.7526222 325.18695929 79.67082596 325.15666199 C78.18637215 325.1479913 76.70187955 325.14413587 75.2174015 325.14592934 C43.80927637 325.17185417 16.83511907 314.34638635 -5.64453125 292.5234375 C-19.1533819 278.91579078 -28.43725582 261.30413688 -32.95703125 242.7109375 C-33.12441331 242.05598392 -33.29179537 241.40103033 -33.46424961 240.72622967 C-35.66685148 230.70550015 -35.26114679 220.50427534 -35.26342773 210.30200195 C-35.27105801 208.13604449 -35.27948699 205.97008971 -35.28865051 203.80413818 C-35.31050559 197.94699588 -35.31938127 192.08990575 -35.32447696 186.23272729 C-35.32812854 182.57066946 -35.33437248 178.90862515 -35.34147835 175.24657249 C-35.3659331 162.4640989 -35.37901796 149.68166571 -35.38256836 136.89916992 C-35.38620952 124.99235936 -35.41615679 113.08580562 -35.45797294 101.17907363 C-35.49265746 90.9435584 -35.50811641 80.70812847 -35.50881439 70.47255486 C-35.50960725 64.36454848 -35.51835221 58.25680455 -35.54681206 52.14885902 C-35.57296374 46.40885344 -35.57521379 40.66932868 -35.55915642 34.92929077 C-35.55734017 32.82501871 -35.56404846 30.72071914 -35.57997513 28.61650658 C-35.60041761 25.74009141 -35.58989472 22.86536199 -35.57176208 19.9889679 C-35.58496205 19.15987437 -35.59816202 18.33078085 -35.61176199 17.47656327 C-35.51482162 10.72738456 -33.09366318 6.12040467 -28.54976457 1.18126184 C-20.29100836 -6.38871396 -8.94064652 -5.8890486 0 0 Z " fill="#000000" transform="translate(125.95703125,46.2890625)"/>
</svg>
